{
  "accessors": [
    {
      "bufferView": 2,
      "componentType": 5126,
      "count": 54,
      "max": [
        0.003744310000911355,
        0.1364089995622635,
        0.2498600035905838
      ],
      "min": [
        -0.02136939950287342,
        0.11129499971866608,
        0.08449350297451019
      ],
      "type": "VEC3"
    },
    {
      "bufferView": 2,
      "byteOffset": 648,
      "componentType": 5126,
      "count": 54,
      "max": [
        1.0,
        0.9659258723258972,
        1.0
      ],
      "min": [
        -1.0,
        -1.0,
        -1.0
      ],
      "type": "VEC3"
    },
    {
      "bufferView": 3,
      "componentType": 5126,
      "count": 54,
      "max": [
        1.0,
        1.0,
        5.960728799436765e-08,
        1.0
      ],
      "min": [
        -0.9659258723258972,
        -1.0,
        -6.700605625908906e-10,
        -1.0
      ],
      "type": "VEC4"
    },
    {
      "bufferView": 1,
      "componentType": 5126,
      "count": 54,
      "max": [
        1.0,
        1.0
      ],
      "min": [
        7.450579886381092e-08,
        0.009999999776482582
      ],
      "type": "VEC2"
    },
    {
      "bufferView": 0,
      "componentType": 5125,
      "count": 132,
      "type": "SCALAR"
    },
    {
      "bufferView": 2,
      "byteOffset": 1296,
      "componentType": 5126,
      "count": 1993,
      "max": [
        0.03126170113682747,
        0.15465299785137177,
        1.0
      ],
      "min": [
        -0.048886798322200775,
        -0.18053700029850006,
        -0.8195250034332275
      ],
      "type": "VEC3"
    },
    {
      "bufferView": 2,
      "byteOffset": 25212,
      "componentType": 5126,
      "count": 1993,
      "max": [
        1.0,
        0.9999915361404419,
        0.9998032450675964
      ],
      "min": [
        -1.0,
        -0.9999021291732788,
        -0.9950054883956909
      ],
      "type": "VEC3"
    },
    {
      "bufferView": 3,
      "byteOffset": 864,
      "componentType": 5126,
      "count": 1993,
      "max": [
        0.9953698515892029,
        1.0,
        0.9999915957450867,
        1.0
      ],
      "min": [
        -0.9953698515892029,
        -0.9999983310699463,
        -0.9999531507492065,
        -1.0
      ],
      "type": "VEC4"
    },
    {
      "bufferView": 1,
      "byteOffset": 432,
      "componentType": 5126,
      "count": 1993,
      "max": [
        1.0,
        1.0
      ],
      "min": [
        0.0,
        0.0
      ],
      "type": "VEC2"
    },
    {
      "bufferView": 0,
      "byteOffset": 528,
      "componentType": 5125,
      "count": 6876,
      "type": "SCALAR"
    },
    {
      "bufferView": 2,
      "byteOffset": 49128,
      "componentType": 5126,
      "count": 604,
      "max": [
        0.025419700890779495,
        0.13659000396728516,
        0.7912610173225403
      ],
      "min": [
        -0.012354600243270397,
        -0.03994179889559746,
        -0.5841270089149475
      ],
      "type": "VEC3"
    },
    {
      "bufferView": 2,
      "byteOffset": 56376,
      "componentType": 5126,
      "count": 604,
      "max": [
        1.0,
        1.0,
        1.0
      ],
      "min": [
        -1.0,
        -1.0,
        -1.0
      ],
      "type": "VEC3"
    },
    {
      "bufferView": 3,
      "byteOffset": 32752,
      "componentType": 5126,
      "count": 604,
      "max": [
        1.0,
        1.0,
        0.9999993443489075,
        1.0
      ],
      "min": [
        -1.0,
        -1.0,
        -1.0,
        -1.0
      ],
      "type": "VEC4"
    },
    {
      "bufferView": 1,
      "byteOffset": 16376,
      "componentType": 5126,
      "count": 604,
      "max": [
        0.8729439973831177,
        1.0
      ],
      "min": [
        0.0,
        0.0
      ],
      "type": "VEC2"
    },
    {
      "bufferView": 0,
      "byteOffset": 28032,
      "componentType": 5125,
      "count": 1620,
      "type": "SCALAR"
    },
    {
      "bufferView": 2,
      "byteOffset": 63624,
      "componentType": 5126,
      "count": 2525,
      "max": [
        0.048886798322200775,
        0.18053700029850006,
        0.4008220136165619
      ],
      "min": [
        -0.0299529992043972,
        0.057283200323581696,
        -1.0
      ],
      "type": "VEC3"
    },
    {
      "bufferView": 2,
      "byteOffset": 93924,
      "componentType": 5126,
      "count": 2525,
      "max": [
        1.0,
        1.0,
        1.0
      ],
      "min": [
        -1.0,
        -1.0,
        -1.0
      ],
      "type": "VEC3"
    },
    {
      "bufferView": 3,
      "byteOffset": 42416,
      "componentType": 5126,
      "count": 2525,
      "max": [
        1.0,
        1.0,
        1.0,
        1.0
      ],
      "min": [
        -1.0,
        -1.0,
        -1.0,
        -1.0
      ],
      "type": "VEC4"
    },
    {
      "bufferView": 1,
      "byteOffset": 21208,
      "componentType": 5126,
      "count": 2525,
      "max": [
        1.0,
        1.0
      ],
      "min": [
        0.0,
        0.0
      ],
      "type": "VEC2"
    },
    {
      "bufferView": 0,
      "byteOffset": 34512,
      "componentType": 5125,
      "count": 6774,
      "type": "SCALAR"
    },
    {
      "bufferView": 2,
      "byteOffset": 124224,
      "componentType": 5126,
      "count": 1538,
      "max": [
        0.03122350014746189,
        0.15551400184631348,
        0.9726110100746155
      ],
      "min": [
        -0.04884859919548035,
        -0.17610600590705872,
        -0.8258079886436462
      ],
      "type": "VEC3"
    },
    {
      "bufferView": 2,
      "byteOffset": 142680,
      "componentType": 5126,
      "count": 1538,
      "max": [
        1.0,
        0.9999991059303284,
        0.9999954700469971
      ],
      "min": [
        -1.0,
        -0.9999859929084778,
        -0.9993659853935242
      ],
      "type": "VEC3"
    },
    {
      "bufferView": 3,
      "byteOffset": 82816,
      "componentType": 5126,
      "count": 1538,
      "max": [
        1.0,
        0.9086319208145142,
        0.9193761944770813,
        1.0
      ],
      "min": [
        -1.0,
        -0.9999974370002747,
        -0.9118777513504028,
        1.0
      ],
      "type": "VEC4"
    },
    {
      "bufferView": 1,
      "byteOffset": 41408,
      "componentType": 5126,
      "count": 1538,
      "max": [
        1.0,
        1.0
      ],
      "min": [
        0.0,
        0.0
      ],
      "type": "VEC2"
    },
    {
      "bufferView": 0,
      "byteOffset": 61608,
      "componentType": 5125,
      "count": 7104,
      "type": "SCALAR"
    }
  ],
  "asset": {
    "extras": {
      "author": "Berk Gedik (https://sketchfab.com/berkgedik)",
      "license": "CC-BY-4.0 (http://creativecommons.org/licenses/by/4.0/)",
      "source": "https://sketchfab.com/3d-models/kar-98-low-poly-0e3c0c7f6c6b4f98bc278b3b310d234b",
      "title": "KAR 98 (Low Poly)"
    },
    "generator": "Sketchfab-13.42.0",
    "version": "2.0"
  },
  "bufferViews": [
    {
      "buffer": 0,
      "byteLength": 90024,
      "name": "floatBufferViews",
      "target": 34963
    },
    {
      "buffer": 0,
      "byteLength": 53712,
      "byteOffset": 90024,
      "byteStride": 8,
      "name": "floatBufferViews",
      "target": 34962
    },
    {
      "buffer": 0,
      "byteLength": 161136,
      "byteOffset": 143736,
      "byteStride": 12,
      "name": "floatBufferViews",
      "target": 34962
    },
    {
      "buffer": 0,
      "byteLength": 107424,
      "byteOffset": 304872,
      "byteStride": 16,
      "name": "floatBufferViews",
      "target": 34962
    }
  ],
  "buffers": [
    {
      "byteLength": 412296,
      "uri": "scene.bin"
    }
  ],
  "images": [
    {
      "uri": "textures/Wood_baseColor.jpeg"
    },
    {
      "uri": "textures/Wood_metallicRoughness.png"
    },
    {
      "uri": "textures/Wood_normal.png"
    },
    {
      "uri": "textures/Namlu_baseColor.jpeg"
    },
    {
      "uri": "textures/Namlu_metallicRoughness.png"
    },
    {
      "uri": "textures/Namlu_normal.png"
    },
    {
      "uri": "textures/Metal_02_Ekler_baseColor.jpeg"
    },
    {
      "uri": "textures/Metal_02_Ekler_metallicRoughness.png"
    },
    {
      "uri": "textures/Metal_02_Ekler_normal.png"
    },
    {
      "uri": "textures/Metal_baseColor.jpeg"
    },
    {
      "uri": "textures/Metal_metallicRoughness.png"
    },
    {
      "uri": "textures/Metal_normal.png"
    },
    {
      "uri": "textures/Metal_Parlak_baseColor.jpeg"
    },
    {
      "uri": "textures/Metal_Parlak_metallicRoughness.png"
    },
    {
      "uri": "textures/Metal_Parlak_normal.png"
    }
  ],
  "materials": [
    {
      "doubleSided": true,
      "name": "Wood",
      "normalTexture": {
        "index": 2
      },
      "occlusionTexture": {
        "index": 1
      },
      "pbrMetallicRoughness": {
        "baseColorTexture": {
          "index": 0
        },
        "metallicRoughnessTexture": {
          "index": 1
        }
      }
    },
    {
      "doubleSided": true,
      "name": "Namlu",
      "normalTexture": {
        "index": 5
      },
      "occlusionTexture": {
        "index": 4
      },
      "pbrMetallicRoughness": {
        "baseColorTexture": {
          "index": 3
        },
        "metallicRoughnessTexture": {
          "index": 4
        }
      }
    },
    {
      "doubleSided": true,
      "name": "Metal_02_Ekler",
      "normalTexture": {
        "index": 8
      },
      "occlusionTexture": {
        "index": 7
      },
      "pbrMetallicRoughness": {
        "baseColorTexture": {
          "index": 6
        },
        "metallicRoughnessTexture": {
          "index": 7
        }
      }
    },
    {
      "doubleSided": true,
      "name": "Metal",
      "normalTexture": {
        "index": 11
      },
      "occlusionTexture": {
        "index": 10
      },
      "pbrMetallicRoughness": {
        "baseColorTexture": {
          "index": 9
        },
        "metallicRoughnessTexture": {
          "index": 10
        }
      }
    },
    {
      "doubleSided": true,
      "name": "Metal_Parlak",
      "normalTexture": {
        "index": 14
      },
      "pbrMetallicRoughness": {
        "baseColorTexture": {
          "index": 12
        },
        "metallicRoughnessTexture": {
          "index": 13
        }
      }
    }
  ],
  "meshes": [
    {
      "name": "defaultMaterial",
      "primitives": [
        {
          "attributes": {
            "NORMAL": 1,
            "POSITION": 0,
            "TANGENT": 2,
            "TEXCOORD_0": 3
          },
          "indices": 4,
          "material": 4,
          "mode": 4
        }
      ]
    },
    {
      "name": "defaultMaterial",
      "primitives": [
        {
          "attributes": {
            "NORMAL": 6,
            "POSITION": 5,
            "TANGENT": 7,
            "TEXCOORD_0": 8
          },
          "indices": 9,
          "material": 3,
          "mode": 4
        }
      ]
    },
    {
      "name": "defaultMaterial",
      "primitives": [
        {
          "attributes": {
            "NORMAL": 11,
            "POSITION": 10,
            "TANGENT": 12,
            "TEXCOORD_0": 13
          },
          "indices": 14,
          "material": 2,
          "mode": 4
        }
      ]
    },
    {
      "name": "defaultMaterial",
      "primitives": [
        {
          "attributes": {
            "NORMAL": 16,
            "POSITION": 15,
            "TANGENT": 17,
            "TEXCOORD_0": 18
          },
          "indices": 19,
          "material": 1,
          "mode": 4
        }
      ]
    },
    {
      "name": "defaultMaterial",
      "primitives": [
        {
          "attributes": {
            "NORMAL": 21,
            "POSITION": 20,
            "TANGENT": 22,
            "TEXCOORD_0": 23
          },
          "indices": 24,
          "material": 0,
          "mode": 4
        }
      ]
    }
  ],
  "nodes": [
    {
      "children": [
        1
      ],
      "matrix": [
        1.0,
        0.0,
        0.0,
        0.0,
        0.0,
        2.220446049250313e-16,
        -1.0,
        0.0,
        0.0,
        1.0,
        2.220446049250313e-16,
        0.0,
        0.0,
        0.0,
        0.0,
        1.0
      ],
      "name": "Sketchfab_model"
    },
    {
      "children": [
        2,
        4,
        6,
        8,
        10
      ],
      "matrix": [
        1.0,
        0.0,
        0.0,
        0.0,
        0.0,
        -4.371139006309477e-08,
        0.999999999999999,
        0.0,
        0.0,
        -0.999999999999999,
        -4.371139006309477e-08,
        0.0,
        0.0,
        0.0,
        0.0,
        1.0
      ],
      "name": "Collada visual scene group"
    },
    {
      "children": [
        3
      ],
      "name": "Cylinder.005"
    },
    {
      "mesh": 0,
      "name": "defaultMaterial"
    },
    {
      "children": [
        5
      ],
      "name": "Cube.006"
    },
    {
      "mesh": 1,
      "name": "defaultMaterial"
    },
    {
      "children": [
        7
      ],
      "name": "Cube.006"
    },
    {
      "mesh": 2,
      "name": "defaultMaterial"
    },
    {
      "children": [
        9
      ],
      "name": "Cylinder.004"
    },
    {
      "mesh": 3,
      "name": "defaultMaterial"
    },
    {
      "children": [
        11
      ],
      "name": "Cube.001"
    },
    {
      "mesh": 4,
      "name": "defaultMaterial"
    }
  ],
  "samplers": [
    {
      "magFilter": 9729,
      "minFilter": 9987,
      "wrapS": 10497,
      "wrapT": 10497
    }
  ],
  "scene": 0,
  "scenes": [
    {
      "name": "Sketchfab_Scene",
      "nodes": [
        0
      ]
    }
  ],
  "textures": [
    {
      "sampler": 0,
      "source": 0
    },
    {
      "sampler": 0,
      "source": 1
    },
    {
      "sampler": 0,
      "source": 2
    },
    {
      "sampler": 0,
      "source": 3
    },
    {
      "sampler": 0,
      "source": 4
    },
    {
      "sampler": 0,
      "source": 5
    },
    {
      "sampler": 0,
      "source": 6
    },
    {
      "sampler": 0,
      "source": 7
    },
    {
      "sampler": 0,
      "source": 8
    },
    {
      "sampler": 0,
      "source": 9
    },
    {
      "sampler": 0,
      "source": 10
    },
    {
      "sampler": 0,
      "source": 11
    },
    {
      "sampler": 0,
      "source": 12
    },
    {
      "sampler": 0,
      "source": 13
    },
    {
      "sampler": 0,
      "source": 14
    }
  ]
}
