{
  "accessors": [
    {
      "bufferView": 3,
      "componentType": 5126,
      "count": 6098,
      "max": [
        0.022541401907801628,
        0.08346237242221832,
        0.9313018321990967
      ],
      "min": [
        -0.022541401907801628,
        -0.09897471964359283,
        -0.26572442054748535
      ],
      "type": "VEC3"
    },
    {
      "bufferView": 3,
      "byteOffset": 73176,
      "componentType": 5126,
      "count": 6098,
      "max": [
        1.0,
        1.0,
        1.0
      ],
      "min": [
        -1.0,
        -1.0,
        -1.0
      ],
      "type": "VEC3"
    },
    {
      "bufferView": 4,
      "componentType": 5126,
      "count": 6098,
      "max": [
        1.0,
        1.0,
        1.0,
        1.0
      ],
      "min": [
        -1.0,
        -1.0,
        -1.0,
        1.0
      ],
      "type": "VEC4"
    },
    {
      "bufferView": 2,
      "componentType": 5126,
      "count": 6098,
      "max": [
        0.9943702220916748,
        0.99609375
      ],
      "min": [
        0.00390625,
        0.00390625
      ],
      "type": "VEC2"
    },
    {
      "bufferView": 1,
      "componentType": 5125,
      "count": 18957,
      "type": "SCALAR"
    },
    {
      "bufferView": 5,
      "componentType": 5126,
      "count": 17,
      "max": [
        1.0,
        6.74894629071332e-09,
        3.878270490531577e-06,
        0.0,
        7.117674776391941e-14,
        1.0000001192092896,
        1.0000001192092896,
        0.0,
        3.878270035784226e-06,
        1.0000001192092896,
        1.0000001192092896,
        0.0,
        0.0027641637716442347,
        0.25134748220443726,
        0.1444263905286789,
        1.0
      ],
      "min": [
        -1.0,
        -2.8247250025148496e-11,
        -1.5099580252808664e-07,
        0.0,
        -4.746872264149715e-07,
        -1.000000238418579,
        -1.0000001192092896,
        0.0,
        -2.8247246555701544e-11,
        -1.0,
        -0.9441218376159668,
        0.0,
        -0.002756858943030238,
        -0.21663515269756317,
        -0.6101944446563721,
        1.0
      ],
      "type": "MAT4"
    },
    {
      "bufferView": 0,
      "componentType": 5123,
      "count": 6098,
      "type": "VEC4"
    },
    {
      "bufferView": 4,
      "byteOffset": 97568,
      "componentType": 5126,
      "count": 6098,
      "max": [
        1.0,
        0.0,
        0.0,
        0.0
      ],
      "min": [
        1.0,
        0.0,
        0.0,
        0.0
      ],
      "type": "VEC4"
    }
  ],
  "asset": {
    "extras": {
      "author": "PeLmEsHkO (https://sketchfab.com/pelmeshko_tf2)",
      "license": "CC-BY-4.0 (http://creativecommons.org/licenses/by/4.0/)",
      "source": "https://sketchfab.com/3d-models/izh-27-7d9b3e3ea2ad4cab841a7b26ea0d3562",
      "title": "IZH-27"
    },
    "generator": "Sketchfab-16.85.0",
    "version": "2.0"
  },
  "bufferViews": [
    {
      "buffer": 0,
      "byteLength": 48784,
      "byteStride": 8,
      "name": "shortBufferViews",
      "target": 34962
    },
    {
      "buffer": 0,
      "byteLength": 75828,
      "byteOffset": 48784,
      "name": "floatBufferViews",
      "target": 34963
    },
    {
      "buffer": 0,
      "byteLength": 48784,
      "byteOffset": 124612,
      "byteStride": 8,
      "name": "floatBufferViews",
      "target": 34962
    },
    {
      "buffer": 0,
      "byteLength": 146352,
      "byteOffset": 173396,
      "byteStride": 12,
      "name": "floatBufferViews",
      "target": 34962
    },
    {
      "buffer": 0,
      "byteLength": 195136,
      "byteOffset": 319748,
      "byteStride": 16,
      "name": "floatBufferViews",
      "target": 34962
    },
    {
      "buffer": 0,
      "byteLength": 1088,
      "byteOffset": 514884,
      "name": "floatBufferViews"
    }
  ],
  "buffers": [
    {
      "byteLength": 515972,
      "uri": "scene.bin"
    }
  ],
  "images": [
    {
      "uri": "textures/izh-27_baseColor.png"
    },
    {
      "uri": "textures/izh-27_metallicRoughness.png"
    },
    {
      "uri": "textures/izh-27_normal.png"
    }
  ],
  "materials": [
    {
      "doubleSided": true,
      "name": "izh-27",
      "normalTexture": {
        "index": 2
      },
      "pbrMetallicRoughness": {
        "baseColorTexture": {
          "index": 0
        },
        "metallicRoughnessTexture": {
          "index": 1
        }
      }
    }
  ],
  "meshes": [
    {
      "name": "izh-27_izh-27_0",
      "primitives": [
        {
          "attributes": {
            "JOINTS_0": 6,
            "NORMAL": 1,
            "POSITION": 0,
            "TANGENT": 2,
            "TEXCOORD_0": 3,
            "WEIGHTS_0": 7
          },
          "indices": 4,
          "material": 0,
          "mode": 4
        }
      ]
    }
  ],
  "nodes": [
    {
      "children": [
        1
      ],
      "matrix": [
        1.0,
        0.0,
        0.0,
        0.0,
        0.0,
        2.220446049250313e-16,
        -1.0,
        0.0,
        0.0,
        1.0,
        2.220446049250313e-16,
        0.0,
        0.0,
        0.0,
        0.0,
        1.0
      ],
      "name": "Sketchfab_model"
    },
    {
      "children": [
        2
      ],
      "matrix": [
        1.0,
        0.0,
        0.0,
        0.0,
        0.0,
        0.0,
        1.0,
        0.0,
        0.0,
        -1.0,
        0.0,
        0.0,
        0.0,
        0.0,
        0.0,
        1.0
      ],
      "name": "izh-27.fbx"
    },
    {
      "children": [
        3
      ],
      "name": "RootNode"
    },
    {
      "children": [
        4
      ],
      "matrix": [
        1.0,
        0.0,
        0.0,
        0.0,
        0.0,
        0.999999999999999,
        4.371138828673792e-08,
        0.0,
        0.0,
        -4.371138828673792e-08,
        0.999999999999999,
        0.0,
        0.0,
        0.0,
        0.0,
        1.0
      ],
      "name": "izh-27_arm"
    },
    {
      "children": [
        5,
        7,
        6
      ],
      "name": "Object_4"
    },
    {
      "children": [
        8
      ],
      "name": "_rootJoint"
    },
    {
      "matrix": [
        1.0000000000000229,
        -9.0000469370969e-15,
        6.465138957473349e-22,
        0.0,
        9.000047473541407e-15,
        1.0000000596046603,
        4.371137928668507e-08,
        0.0,
        -1.039918399547943e-21,
        -4.371137928668423e-08,
        1.000000059604641,
        0.0,
        1.299406873864894e-16,
        1.1578078495944055e-09,
        -1.3537345355807417e-08,
        1.0
      ],
      "name": "Object_6"
    },
    {
      "mesh": 0,
      "name": "Object_7",
      "skin": 0
    },
    {
      "children": [
        9,
        14,
        16,
        18,
        20,
        22
      ],
      "name": "stock_00",
      "rotation": [
        0.7071067094802856,
        -5.338504749374806e-08,
        -5.338504749374806e-08,
        0.7071068286895752
      ],
      "scale": [
        1.0,
        0.9999999403953552,
        0.9999999403953552
      ],
      "translation": [
        9.926167350636332e-24,
        0.019128095358610153,
        -0.25134748220443726
      ]
    },
    {
      "children": [
        10,
        12
      ],
      "name": "barrel_01",
      "rotation": [
        -2.419167088874019e-10,
        -2.842170943040401e-14,
        3.652759440118226e-17,
        1.0
      ],
      "translation": [
        9.987620914448612e-17,
        0.4679826498031616,
        -1.6912062861251798e-09
      ]
    },
    {
      "children": [
        11
      ],
      "name": "ejector_02",
      "rotation": [
        1.0,
        -2.8235708909862822e-11,
        -7.549789415861596e-08,
        -0.00018699566135182977
      ],
      "translation": [
        -4.67039251716983e-09,
        0.009212097153067589,
        -0.03093062900006771
      ]
    },
    {
      "name": "ejector_end_09",
      "rotation": [
        0.0,
        0.0,
        1.6155871338926322e-27,
        1.0
      ],
      "translation": [
        8.077935669463161e-28,
        0.07547298073768616,
        0.0
      ]
    },
    {
      "children": [
        13
      ],
      "name": "sling_swivel_2_03",
      "rotation": [
        1.4554693734680768e-06,
        0.7071068286895752,
        0.7071067094802856,
        1.3486990155797685e-06
      ],
      "translation": [
        -3.353533628569494e-08,
        0.3935593068599701,
        -0.006219041533768177
      ]
    },
    {
      "name": "sling_swivel_2_end_010",
      "rotation": [
        -5.293955920339377e-23,
        4.235164736271502e-22,
        2.0194839173657902e-28,
        1.0
      ],
      "translation": [
        -4.235164736271502e-22,
        0.013103049248456955,
        -1.1102230246251565e-16
      ]
    },
    {
      "children": [
        15
      ],
      "name": "locking_lever_04",
      "rotation": [
        1.0,
        1.2021949408191901e-11,
        -7.549789415861596e-08,
        7.970730075612664e-05
      ],
      "translation": [
        -6.573604327542171e-09,
        0.39759379625320435,
        -0.04353504627943039
      ]
    },
    {
      "name": "locking_lever_end_011",
      "rotation": [
        -0.0,
        -7.888609052210118e-30,
        -1.6155871338926322e-27,
        1.0
      ],
      "translation": [
        2.0194839173657902e-28,
        0.05637550354003906,
        1.3877787807814457e-17
      ]
    },
    {
      "children": [
        17
      ],
      "name": "safety_05",
      "rotation": [
        -0.16399997472763062,
        4.006167397818672e-09,
        2.4097268180867104e-08,
        0.9864603281021118
      ],
      "scale": [
        1.0,
        1.0000001192092896,
        1.0
      ],
      "translation": [
        -4.343516657456803e-09,
        0.31399282813072205,
        -0.028765836730599403
      ]
    },
    {
      "name": "safety_end_012",
      "rotation": [
        2.7755575615628914e-17,
        8.271806125530277e-24,
        -2.2958874039497803e-40,
        1.0
      ],
      "translation": [
        -4.1359030627651384e-25,
        0.03340112417936325,
        3.469446951953614e-18
      ]
    },
    {
      "children": [
        19
      ],
      "name": "trigger_1_06",
      "rotation": [
        0.8153516054153442,
        7.091906439882223e-08,
        -2.906850937733907e-08,
        0.5789660811424255
      ],
      "scale": [
        1.0,
        1.0000001192092896,
        1.0000001192092896
      ],
      "translation": [
        -0.00276417238637805,
        0.37091976404190063,
        0.006923746317625046
      ]
    },
    {
      "name": "trigger_1_end_013",
      "rotation": [
        2.7755575615628914e-17,
        -6.617444900424222e-24,
        -3.308722450212111e-24,
        1.0
      ],
      "translation": [
        0.0,
        0.03430692106485367,
        0.0
      ]
    },
    {
      "children": [
        21
      ],
      "name": "trigger_2_07",
      "rotation": [
        0.9487718343734741,
        1.1854223913587703e-07,
        2.100617564337881e-07,
        0.315962016582489
      ],
      "scale": [
        1.0,
        1.0000001192092896,
        1.0000007152557373
      ],
      "translation": [
        0.002756822854280472,
        0.37092065811157227,
        0.006916193291544914
      ]
    },
    {
      "name": "trigger_2_end_014",
      "rotation": [
        4.203895392974451e-45,
        3.970466940254533e-23,
        -1.0587911840678754e-22,
        1.0
      ],
      "translation": [
        4.336808689942018e-19,
        0.040406279265880585,
        -6.938893903907228e-18
      ]
    },
    {
      "children": [
        23
      ],
      "name": "sling_swivel_1_08",
      "rotation": [
        5.3385033282893346e-08,
        0.7071068286895752,
        0.7071067690849304,
        -5.338511854802164e-08
      ],
      "translation": [
        1.2895087664333005e-08,
        0.10692111402750015,
        0.08540035784244537
      ]
    },
    {
      "name": "sling_swivel_1_end_015",
      "rotation": [
        0.0,
        1.262177448353619e-29,
        -6.004574102644381e-30,
        1.0
      ],
      "translation": [
        0.0,
        0.013103052973747253,
        0.0
      ]
    }
  ],
  "samplers": [
    {
      "magFilter": 9729,
      "minFilter": 9987,
      "wrapS": 10497,
      "wrapT": 10497
    }
  ],
  "scene": 0,
  "scenes": [
    {
      "name": "Sketchfab_Scene",
      "nodes": [
        0
      ]
    }
  ],
  "skins": [
    {
      "inverseBindMatrices": 5,
      "joints": [
        5,
        8,
        9,
        10,
        11,
        12,
        13,
        14,
        15,
        16,
        17,
        18,
        19,
        20,
        21,
        22,
        23
      ],
      "skeleton": 5
    }
  ],
  "textures": [
    {
      "sampler": 0,
      "source": 0
    },
    {
      "sampler": 0,
      "source": 1
    },
    {
      "sampler": 0,
      "source": 2
    }
  ]
}
